{
  "accessors": [
    {
      "bufferView": 2,
      "componentType": 5126,
      "count": 36,
      "max": [
        0.3422834873199463,
        0.21109339594841003,
        19.1229248046875
      ],
      "min": [
        -0.6264925599098206,
        -1.2751973867416382,
        18.542808532714844
      ],
      "type": "VEC3"
    },
    {
      "bufferView": 2,
      "byteOffset": 432,
      "componentType": 5126,
      "count": 36,
      "max": [
        0.7988635301589966,
        0.3723614811897278,
        0.9997318983078003
      ],
      "min": [
        -0.19321581721305847,
        -0.7709102630615234,
        0.47240254282951355
      ],
      "type": "VEC3"
    },
    {
      "bufferView": 1,
      "componentType": 5126,
      "count": 36,
      "max": [
        0.03331540897488594,
        0.690168559551239
      ],
      "min": [
        0.02447172999382019,
        0.5985778570175171
      ],
      "type": "VEC2"
    },
    {
      "bufferView": 0,
      "componentType": 5125,
      "count": 72,
      "type": "SCALAR"
    },
    {
      "bufferView": 2,
      "byteOffset": 864,
      "componentType": 5126,
      "count": 424,
      "max": [
        0.90144282579422,
        -0.1792283058166504,
        17.777925491333008
      ],
      "min": [
        -0.90144282579422,
        -1.2987780570983887,
        17.24067497253418
      ],
      "type": "VEC3"
    },
    {
      "bufferView": 2,
      "byteOffset": 5952,
      "componentType": 5126,
      "count": 424,
      "max": [
        0.9461789131164551,
        0.997010350227356,
        0.9999958872795105
      ],
      "min": [
        -0.9461789131164551,
        -0.9971558451652527,
        -0.9997462630271912
      ],
      "type": "VEC3"
    },
    {
      "bufferView": 1,
      "byteOffset": 288,
      "componentType": 5126,
      "count": 424,
      "max": [
        0.037660714238882065,
        0.7723872661590576
      ],
      "min": [
        0.025899484753608704,
        0.5679395794868469
      ],
      "type": "VEC2"
    },
    {
      "bufferView": 0,
      "byteOffset": 288,
      "componentType": 5125,
      "count": 636,
      "type": "SCALAR"
    },
    {
      "bufferView": 2,
      "byteOffset": 11040,
      "componentType": 5126,
      "count": 144,
      "max": [
        0.4070027470588684,
        -0.9196720123291016,
        17.1336612701416
      ],
      "min": [
        -0.4070027470588684,
        -1.2984297275543213,
        16.764060974121094
      ],
      "type": "VEC3"
    },
    {
      "bufferView": 2,
      "byteOffset": 12768,
      "componentType": 5126,
      "count": 144,
      "max": [
        0.9591861963272095,
        -0.11050359159708023,
        0.5831402540206909
      ],
      "min": [
        -0.9591859579086304,
        -0.9651860594749451,
        -0.04182662069797516
      ],
      "type": "VEC3"
    },
    {
      "bufferView": 1,
      "byteOffset": 3680,
      "componentType": 5126,
      "count": 144,
      "max": [
        0.039179932326078415,
        0.6693909168243408
      ],
      "min": [
        0.026666220277547836,
        0.5784950852394104
      ],
      "type": "VEC2"
    },
    {
      "bufferView": 0,
      "byteOffset": 2832,
      "componentType": 5125,
      "count": 216,
      "type": "SCALAR"
    },
    {
      "bufferView": 2,
      "byteOffset": 14496,
      "componentType": 5126,
      "count": 30,
      "max": [
        0.604169487953186,
        -1.0400056838989258,
        17.70362091064453
      ],
      "min": [
        -0.604169487953186,
        -1.2588940858840942,
        17.338245391845703
      ],
      "type": "VEC3"
    },
    {
      "bufferView": 2,
      "byteOffset": 14856,
      "componentType": 5126,
      "count": 30,
      "max": [
        0.5639770030975342,
        -0.8257825970649719,
        0.056265417486429214
      ],
      "min": [
        -0.5319782495498657,
        -0.9411563873291016,
        -0.03771698847413063
      ],
      "type": "VEC3"
    },
    {
      "bufferView": 1,
      "byteOffset": 4832,
      "componentType": 5126,
      "count": 30,
      "max": [
        0.03636229410767555,
        0.8557806611061096
      ],
      "min": [
        0.02475845068693161,
        0.564387321472168
      ],
      "type": "VEC2"
    },
    {
      "bufferView": 0,
      "byteOffset": 3696,
      "componentType": 5125,
      "count": 54,
      "type": "SCALAR"
    },
    {
      "bufferView": 2,
      "byteOffset": 15216,
      "componentType": 5126,
      "count": 2017,
      "max": [
        6.50438117980957,
        1.3990036249160767,
        19.020132064819336
      ],
      "min": [
        -6.50438117980957,
        -1.5870745182037354,
        0.00596093712374568
      ],
      "type": "VEC3"
    },
    {
      "bufferView": 2,
      "byteOffset": 39420,
      "componentType": 5126,
      "count": 2017,
      "max": [
        0.9987208247184753,
        0.9991539716720581,
        0.9896501898765564
      ],
      "min": [
        -0.9987208247184753,
        -0.999999463558197,
        -0.9999938607215881
      ],
      "type": "VEC3"
    },
    {
      "bufferView": 1,
      "byteOffset": 5072,
      "componentType": 5126,
      "count": 2017,
      "max": [
        0.28506603837013245,
        0.9157400131225586
      ],
      "min": [
        0.08832968026399612,
        0.5555391311645508
      ],
      "type": "VEC2"
    },
    {
      "bufferView": 0,
      "byteOffset": 3912,
      "componentType": 5125,
      "count": 4560,
      "type": "SCALAR"
    },
    {
      "bufferView": 2,
      "byteOffset": 63624,
      "componentType": 5126,
      "count": 2017,
      "max": [
        6.517048358917236,
        1.4134533405303955,
        19.035966873168945
      ],
      "min": [
        -6.517048358917236,
        -1.6029856204986572,
        -0.00633956678211689
      ],
      "type": "VEC3"
    },
    {
      "bufferView": 2,
      "byteOffset": 87828,
      "componentType": 5126,
      "count": 2017,
      "max": [
        0.9987216591835022,
        1.0,
        0.9999974966049194
      ],
      "min": [
        -0.9987216591835022,
        -0.998995840549469,
        -0.9896001219749451
      ],
      "type": "VEC3"
    },
    {
      "bufferView": 1,
      "byteOffset": 21208,
      "componentType": 5126,
      "count": 2017,
      "max": [
        0.28506603837013245,
        0.9157400131225586
      ],
      "min": [
        0.08832968026399612,
        0.5555391311645508
      ],
      "type": "VEC2"
    },
    {
      "bufferView": 0,
      "byteOffset": 22152,
      "componentType": 5125,
      "count": 4560,
      "type": "SCALAR"
    },
    {
      "bufferView": 2,
      "byteOffset": 112032,
      "componentType": 5126,
      "count": 80,
      "max": [
        0.6908391714096069,
        -0.8686082363128662,
        17.9572811126709
      ],
      "min": [
        -0.6908391714096069,
        -1.2237091064453125,
        17.772077560424805
      ],
      "type": "VEC3"
    },
    {
      "bufferView": 2,
      "byteOffset": 112992,
      "componentType": 5126,
      "count": 80,
      "max": [
        0.9593529105186462,
        0.9884501695632935,
        0.9756152033805847
      ],
      "min": [
        -0.9593529105186462,
        -0.9880457520484924,
        -0.9865918159484863
      ],
      "type": "VEC3"
    },
    {
      "bufferView": 1,
      "byteOffset": 37344,
      "componentType": 5126,
      "count": 80,
      "max": [
        0.035720061510801315,
        0.6153257489204407
      ],
      "min": [
        0.03087173029780388,
        0.6023162007331848
      ],
      "type": "VEC2"
    },
    {
      "bufferView": 0,
      "byteOffset": 40392,
      "componentType": 5125,
      "count": 168,
      "type": "SCALAR"
    },
    {
      "bufferView": 2,
      "byteOffset": 113952,
      "componentType": 5126,
      "count": 36,
      "max": [
        1.466274380683899,
        -0.8782107830047607,
        14.459754943847656
      ],
      "min": [
        -1.466274380683899,
        -1.0217747688293457,
        14.283814430236816
      ],
      "type": "VEC3"
    },
    {
      "bufferView": 2,
      "byteOffset": 114384,
      "componentType": 5126,
      "count": 36,
      "max": [
        0.37553057074546814,
        -0.8018832206726074,
        0.4647175371646881
      ],
      "min": [
        -0.37553057074546814,
        -0.8018954992294312,
        0.46470311284065247
      ],
      "type": "VEC3"
    },
    {
      "bufferView": 1,
      "byteOffset": 37984,
      "componentType": 5126,
      "count": 36,
      "max": [
        0.09938148409128189,
        0.6911481618881226
      ],
      "min": [
        0.08290193229913712,
        0.6746461987495422
      ],
      "type": "VEC2"
    },
    {
      "bufferView": 0,
      "byteOffset": 41064,
      "componentType": 5125,
      "count": 36,
      "type": "SCALAR"
    }
  ],
  "asset": {
    "extras": {
      "author": "Pawel (https://sketchfab.com/keniak313)",
      "license": "CC-BY-4.0 (http://creativecommons.org/licenses/by/4.0/)",
      "source": "https://sketchfab.com/3d-models/random-guy-c712287c81b7469f9ee9a6757ba2c3c3",
      "title": "Random Guy"
    },
    "generator": "Sketchfab-12.66.0",
    "version": "2.0"
  },
  "bufferViews": [
    {
      "buffer": 0,
      "byteLength": 41208,
      "name": "floatBufferViews",
      "target": 34963
    },
    {
      "buffer": 0,
      "byteLength": 38272,
      "byteOffset": 41208,
      "byteStride": 8,
      "name": "floatBufferViews",
      "target": 34962
    },
    {
      "buffer": 0,
      "byteLength": 114816,
      "byteOffset": 79480,
      "byteStride": 12,
      "name": "floatBufferViews",
      "target": 34962
    }
  ],
  "buffers": [
    {
      "byteLength": 194296,
      "uri": "random.bin"
    }
  ],
  "extensionsUsed": [
    "KHR_materials_unlit"
  ],
  "images": [
    {
      "uri": "textures/Character01_baseColor.png"
    }
  ],
  "materials": [
    {
      "doubleSided": true,
      "extensions": {
        "KHR_materials_unlit": {}
      },
      "name": "Character01",
      "pbrMetallicRoughness": {
        "baseColorTexture": {
          "index": 0
        },
        "metallicFactor": 0.0
      }
    },
    {
      "alphaMode": "BLEND",
      "doubleSided": true,
      "extensions": {
        "KHR_materials_unlit": {}
      },
      "name": "Character01_Glass",
      "pbrMetallicRoughness": {
        "baseColorFactor": [
          1.0,
          1.0,
          1.0,
          0.9590320122
        ],
        "baseColorTexture": {
          "index": 0
        },
        "metallicFactor": 0.0
      }
    },
    {
      "extensions": {
        "KHR_materials_unlit": {}
      },
      "name": "Outline.001",
      "pbrMetallicRoughness": {
        "baseColorFactor": [
          0.8492759146,
          0.8492759146,
          0.8492759146,
          1.0
        ],
        "baseColorTexture": {
          "index": 0
        },
        "metallicFactor": 0.0
      }
    }
  ],
  "meshes": [
    {
      "name": "Hair_Character01_0",
      "primitives": [
        {
          "attributes": {
            "NORMAL": 1,
            "POSITION": 0,
            "TEXCOORD_0": 2
          },
          "indices": 3,
          "material": 0,
          "mode": 4
        }
      ]
    },
    {
      "name": "Okulary_Character01_0",
      "primitives": [
        {
          "attributes": {
            "NORMAL": 5,
            "POSITION": 4,
            "TEXCOORD_0": 6
          },
          "indices": 7,
          "material": 0,
          "mode": 4
        }
      ]
    },
    {
      "name": "Wasy_Character01_0",
      "primitives": [
        {
          "attributes": {
            "NORMAL": 9,
            "POSITION": 8,
            "TEXCOORD_0": 10
          },
          "indices": 11,
          "material": 0,
          "mode": 4
        }
      ]
    },
    {
      "name": "Szkla_Character01_Glass_0",
      "primitives": [
        {
          "attributes": {
            "NORMAL": 13,
            "POSITION": 12,
            "TEXCOORD_0": 14
          },
          "indices": 15,
          "material": 1,
          "mode": 4
        }
      ]
    },
    {
      "name": "Cube_Character01_0",
      "primitives": [
        {
          "attributes": {
            "NORMAL": 17,
            "POSITION": 16,
            "TEXCOORD_0": 18
          },
          "indices": 19,
          "material": 0,
          "mode": 4
        }
      ]
    },
    {
      "name": "Cube_Outline.001_0",
      "primitives": [
        {
          "attributes": {
            "NORMAL": 21,
            "POSITION": 20,
            "TEXCOORD_0": 22
          },
          "indices": 23,
          "material": 2,
          "mode": 4
        }
      ]
    },
    {
      "name": "Cube.001_Character01_0",
      "primitives": [
        {
          "attributes": {
            "NORMAL": 25,
            "POSITION": 24,
            "TEXCOORD_0": 26
          },
          "indices": 27,
          "material": 0,
          "mode": 4
        }
      ]
    },
    {
      "name": "Circle_Character01_0",
      "primitives": [
        {
          "attributes": {
            "NORMAL": 29,
            "POSITION": 28,
            "TEXCOORD_0": 30
          },
          "indices": 31,
          "material": 0,
          "mode": 4
        }
      ]
    }
  ],
  "nodes": [
    {
      "children": [
        1
      ],
      "matrix": [
        1.0,
        0.0,
        0.0,
        0.0,
        0.0,
        2.220446049250313e-16,
        -1.0,
        0.0,
        0.0,
        1.0,
        2.220446049250313e-16,
        0.0,
        0.0,
        0.0,
        0.0,
        1.0
      ],
      "name": "Sketchfab_model"
    },
    {
      "children": [
        2
      ],
      "matrix": [
        1.0,
        0.0,
        0.0,
        0.0,
        0.0,
        0.0,
        1.0,
        0.0,
        0.0,
        -1.0,
        0.0,
        0.0,
        0.0,
        0.0,
        0.0,
        1.0
      ],
      "name": "28590edbf8564874a7a7182b878a7f5a.fbx"
    },
    {
      "children": [
        3,
        5,
        7,
        9,
        11,
        14,
        16
      ],
      "name": "RootNode"
    },
    {
      "children": [
        4
      ],
      "matrix": [
        1.0,
        0.0,
        0.0,
        0.0,
        0.0,
        -1.6292067939183141e-07,
        -0.9999999999999868,
        0.0,
        0.0,
        0.9999999999999868,
        -1.6292067939183141e-07,
        0.0,
        0.0,
        0.0,
        0.0,
        1.0
      ],
      "name": "Hair"
    },
    {
      "mesh": 0,
      "name": "Hair_Character01_0"
    },
    {
      "children": [
        6
      ],
      "matrix": [
        1.0,
        0.0,
        0.0,
        0.0,
        0.0,
        -1.6292067939183141e-07,
        -0.9999999999999868,
        0.0,
        0.0,
        0.9999999999999868,
        -1.6292067939183141e-07,
        0.0,
        0.0,
        0.0,
        0.0,
        1.0
      ],
      "name": "Okulary"
    },
    {
      "mesh": 1,
      "name": "Okulary_Character01_0"
    },
    {
      "children": [
        8
      ],
      "matrix": [
        1.0,
        0.0,
        0.0,
        0.0,
        0.0,
        -1.6292067939183141e-07,
        -0.9999999999999868,
        0.0,
        0.0,
        0.9999999999999868,
        -1.6292067939183141e-07,
        0.0,
        0.0,
        0.0,
        0.0,
        1.0
      ],
      "name": "Wasy"
    },
    {
      "mesh": 2,
      "name": "Wasy_Character01_0"
    },
    {
      "children": [
        10
      ],
      "matrix": [
        1.0,
        0.0,
        0.0,
        0.0,
        0.0,
        -1.6292067939183141e-07,
        -0.9999999999999868,
        0.0,
        0.0,
        0.9999999999999868,
        -1.6292067939183141e-07,
        0.0,
        0.0,
        0.0,
        0.0,
        1.0
      ],
      "name": "Szkla"
    },
    {
      "mesh": 3,
      "name": "Szkla_Character01_Glass_0"
    },
    {
      "children": [
        12,
        13
      ],
      "matrix": [
        1.0,
        0.0,
        0.0,
        0.0,
        -0.0,
        -1.6292067939183141e-07,
        -0.9999999999999868,
        0.0,
        0.0,
        0.9999999999999868,
        -1.6292067939183141e-07,
        0.0,
        -3.308722450212111e-24,
        0.0,
        0.0,
        1.0
      ],
      "name": "Cube"
    },
    {
      "mesh": 4,
      "name": "Cube_Character01_0"
    },
    {
      "mesh": 5,
      "name": "Cube_Outline.001_0"
    },
    {
      "children": [
        15
      ],
      "matrix": [
        1.0,
        0.0,
        0.0,
        0.0,
        -0.0,
        -1.6292067939183141e-07,
        -0.9999999999999868,
        0.0,
        0.0,
        0.9999999999999868,
        -1.6292067939183141e-07,
        0.0,
        -3.308722450212111e-24,
        0.0,
        0.0,
        1.0
      ],
      "name": "Cube.001"
    },
    {
      "mesh": 6,
      "name": "Cube.001_Character01_0"
    },
    {
      "children": [
        17
      ],
      "matrix": [
        1.0,
        0.0,
        0.0,
        0.0,
        0.0,
        -1.6292067939183141e-07,
        -0.9999999999999868,
        0.0,
        0.0,
        0.9999999999999868,
        -1.6292067939183141e-07,
        0.0,
        3.5762786865234375e-07,
        9.5367431640625e-07,
        -2.980232238769531e-07,
        1.0
      ],
      "name": "Circle"
    },
    {
      "mesh": 7,
      "name": "Circle_Character01_0"
    }
  ],
  "samplers": [
    {
      "magFilter": 9729,
      "minFilter": 9987,
      "wrapS": 10497,
      "wrapT": 10497
    }
  ],
  "scene": 0,
  "scenes": [
    {
      "name": "Sketchfab_Scene",
      "nodes": [
        0
      ]
    }
  ],
  "textures": [
    {
      "sampler": 0,
      "source": 0
    }
  ]
}
